<?xml version="1.0" encoding="UTF-8"?>
<svg width="200px" height="200px" viewBox="0 0 200 200" version="1.1" xmlns="http://www.w3.org/2000/svg">
    <g stroke="none" stroke-width="1" fill="none" fill-rule="evenodd">
        <!-- Circle background -->
        <circle fill="currentColor" cx="100" cy="100" r="90"/>
        
        <!-- Cross symbol -->
        <path d="M85,60 L115,60 L115,85 L140,85 L140,115 L115,115 L115,140 L85,140 L85,115 L60,115 L60,85 L85,85 Z" 
              fill="#FFFFFF" 
              fill-rule="nonzero"/>
              
        <!-- Heart shape -->
        <path d="M100,130 C80,110 70,100 70,85 C70,75 78,70 85,70 C92,70 97,75 100,80 C103,75 108,70 115,70 C122,70 130,75 130,85 C130,100 120,110 100,130 Z" 
              fill="#FFFFFF" 
              fill-rule="nonzero"/>
    </g>
</svg>
